<svg xmlns="http://www.w3.org/2000/svg" viewBox="0 0 2892 548"><defs><style>.cls-1{fill:#fff;}</style></defs><g id="Camada_2" data-name="Camada 2"><g id="Camada_1-2" data-name="Camada 1"><path class="cls-1" d="M335.5,484.85a120.81,120.81,0,0,1-24.81-74,139.35,139.35,0,0,1,4.88-37.44c-8.64,7.08-17.61,14.17-26.7,20.71-27.69,19.94-56.38,35.33-78.86,35.33-17.72,0-87.39-3.32-87.39-20.93V164.18c0-41.09,0-55.16,14.06-91.6H0c15.73,36.44,14.06,50.51,14.06,91.6V393.24c0,41.1,1.67,55.28-14.06,91.61Z"/><path class="cls-1" d="M640.66,410.86V268.19c0-72.22-70.55-108.11-138.34-108.11-58.6,0-112.87,27-112.87,79.31,0,31.68,25.58,45.86,52.17,45.86,18.94,0,37.88-8.31,47.74-24.7C473.63,251.13,466,234.07,466,217.68c0-32.34,23.38-48.74,46.63-48.74,21.16,0,41.77,14.62,41.77,45.2.55,59.92-50.95,79.3-104.13,96.92-55.37,18.83-106.33,37.55-106.33,99.8,0,52.94,46.64,82.85,96.59,82.85,52.61,0,117.19-45.19,214.78-8.86C648.3,472,640.66,442,640.66,410.86ZM532.22,463.8c-36.88,5.21-82-8.86-83.62-65.24-1.56-58.71,49.95-87.5,83.62-118.63Z"/><path class="cls-1" d="M640.66,410.86V268.19c0-72.22-70.55-108.11-138.34-108.11-58.6,0-112.87,27-112.87,79.31,0,31.68,25.58,45.86,52.17,45.86,18.94,0,37.88-8.31,47.74-24.7C473.63,251.13,466,234.07,466,217.68c0-32.34,23.38-48.74,46.63-48.74,21.16,0,41.77,14.62,41.77,45.2.55,59.92-50.95,79.3-104.13,96.92-55.37,18.83-106.33,37.55-106.33,99.8,0,52.94,46.64,82.85,96.59,82.85,52.61,0,117.19-45.19,214.78-8.86C648.3,472,640.66,442,640.66,410.86ZM532.22,463.8c-36.88,5.21-82-8.86-83.62-65.24-1.56-58.71,49.95-87.5,83.62-118.63Z"/><path class="cls-1" d="M891.32,413.29c-68.89,0-103.56-71.11-103.56-137.46,0-65.24,30.91-105.11,65.58-105.11,26,0,38,21.71,38,45.19,0,16.39-6,34-18.94,44.64C883.8,278.71,903.29,287,921.68,287c25.58,0,48.28-15.95,48.85-44.09,1.1-52.83-55.83-82.85-116.64-82.85-105.78.56-155.74,82.19-155.74,168,0,106.56,62,160.61,132.25,164.93a73.12,73.12,0,0,1,9.86-.66,60.11,60.11,0,0,1,8.87.55c50.39-4.54,104.78-43.75,119.29-113.75l-3.32-12.3C947.26,395,920.12,413.29,891.32,413.29Z"/><path class="cls-1" d="M1005.81,331c0-82.81,55.34-170.32,162.76-170.32,106.34,0,159.51,86.34,159.51,169.15,0,82.22-53.17,164.45-159.51,164.45C1059.53,494.29,1005.81,412.65,1005.81,331Zm218.1-1.76C1223.91,250,1205.47,166,1168,166s-55.88,84-55.88,163.27c0,79.88,18.44,159.75,55.88,159.75S1223.91,409.13,1223.91,329.25Z"/><path class="cls-1" d="M2047.3,408,2088,369.78c25,64.6,75.4,110.42,116.64,110.42,23.87,0,45-13.51,43.95-44.64-3.8-78.11-191.52-153.29-191.52-266.06,0-70.48,72.16-108.07,144.31-108.07,45,0,91.7,12.92,121.53,40.52v89.87l-8.67.58C2302.84,114.29,2255.09,72,2207.34,72c-27.13,0-51,20-51,51.1,0,93.38,183.38,148.59,182.84,254.9,0,78.11-75.42,116.29-154.08,116.29C2121.62,494.29,2071.71,465.51,2047.3,408Z"/><path class="cls-1" d="M2388,331c0-82.81,55.34-170.32,162.76-170.32,106.34,0,159.5,86.34,159.5,169.15,0,82.22-53.16,164.45-159.5,164.45C2441.71,494.29,2388,412.65,2388,331Zm218.1-1.76c0-79.29-18.44-163.27-55.88-163.27s-55.88,84-55.88,163.27c0,79.88,18.44,159.75,55.88,159.75S2606.1,409.13,2606.1,329.25Z"/><path class="cls-1" d="M2755.28,484.89c15.73-36.41,14.11-50.51,14.11-91.62V205.33h-.54V173.61c0-12.34,2.16-38.76-15.74-67,40.69-1.18,86.81-11.75,124.24-34.06V176h.54V393.27c0,41.11,0,55.21,14.11,91.62Z"/><path class="cls-1" d="M1599.35,484.89V407.35c-10,38.78-31.17,81.8-65.9,82.58-45.84,1.16-67-43.43-67-91.5,0-64,34.39-127.56,89.54-127.56,16.83,0,32.58,7.76,43.34,23.27V273.2c0-9.31-1.09-23.26-10.39-38,26.86-.78,57.3-7.76,82-22.49V424.4c0,27.14,0,36.46,9.3,60.49Zm0-117.48V306.93c-6.09-13.57-14.34-20.55-22.57-20.55-25.43,0-38.68,52.73-38.68,99.26,0,36.05,7.52,69,23.28,69C1580.72,454.65,1595.41,407.74,1599.35,367.41Z"/><path class="cls-1" d="M1709.64,384.09c0-55.84,37.61-111.66,107.8-112.83,50.86-.78,75.21,26,76.65,55.06,1.42,36.05-31.53,69-81.3,69-10.39,0-19.7-1.55-27.59-4.65,8.6,33.35,30.81,58.16,59.45,58.16,21.5,0,42.26-17.07,53.73-44.59l2.87,2.33c-9,58.54-59.1,84.51-94.55,84.51C1741.87,491.09,1709.64,437.2,1709.64,384.09ZM1840,327.47c.36-27.51-9.31-50-22.21-50-30.79,0-42.62,70.56-34,108.17a35.65,35.65,0,0,0,14.68,3.1C1826,388.74,1839.64,359.65,1840,327.47Z"/><line class="cls-1" x1="2447.24" y1="156.09" x2="2378.19" y2="34.75"/><path class="cls-1" d="M2446.88,156.29q-18.83-29.44-37.05-59.23c-6.15-9.89-12.71-19.54-18-29.92a244.4,244.4,0,0,1-14-32.19l.72-.41A243.11,243.11,0,0,1,2399.06,63c6.23,9.84,11.18,20.41,16.54,30.74q16.3,30.89,32,62.11Z"/><line class="cls-1" x1="2499.4" y1="135.3" x2="2482.16" y2="69.32"/><path class="cls-1" d="M2499,135.41q-6-16.05-11.43-32.26c-1.88-5.38-4.21-10.65-5.12-16.28a61.69,61.69,0,0,1-.69-17.45l.8-.21a61.78,61.78,0,0,1,7.93,15.55c2,5.37,2.5,11.1,3.51,16.71q3.23,16.77,5.8,33.73Z"/><line class="cls-1" x1="2555.16" y1="128.73" x2="2555.78"/><path class="cls-1" d="M2554.75,128.72q-1.65-32.19-2.6-64.37c-.4-10.73-1.28-21.46-.68-32.19A207.58,207.58,0,0,1,2555.36,0h.83a208.78,208.78,0,0,1,3.59,32.2c.49,10.73-.49,21.45-1,32.18q-1.26,32.18-3.21,64.35Z"/><line class="cls-1" x1="2610.73" y1="136.8" x2="2623.82" y2="89.12"/><path class="cls-1" d="M2610.33,136.69q1.53-12.39,3.74-24.61c.66-4.09.86-8.31,2.47-12.14A34.61,34.61,0,0,1,2623.42,89l.8.22a34.42,34.42,0,0,1,.33,12.91c-.56,4.12-2.55,7.85-4.07,11.7q-4.35,11.63-9.35,23.08Z"/><line class="cls-1" x1="2662.3" y1="158.99" x2="2712.29" y2="73.65"/><path class="cls-1" d="M2662,158.78q10.93-22.25,22.48-44.14c3.78-7.34,7.14-14.92,11.78-21.76a124.62,124.62,0,0,1,15.72-19.44l.72.42a125,125,0,0,1-9.27,23.22c-3.7,7.39-8.66,14-13.22,20.92q-13.44,20.77-27.5,41.2Z"/><path class="cls-1" d="M863.43,495.06c-8.7,33.56-44,63.78-103,49.16l1.48-5.69c27.67-2.55,42.93-18.61,47.07-34.59,5.31-20.48-7.84-40.83-33.9-31.22l-3.75-35c18.24,2.9,38.75-6.89,56.25-20.54-.54-.14-1.16-.42-1.69-.55a70.13,70.13,0,0,1,9.7,1.83,59.55,59.55,0,0,1,8.45,2.76,17.65,17.65,0,0,1-2.31-.37l-12.53,9.45C859.86,439.56,870.21,468.9,863.43,495.06Z"/></g></g></svg>